<?xml version="1.0" encoding="UTF-8" standalone="no"?>
<svg width="110px" height="110px" viewBox="0 0 110 110" version="1.1" xmlns="http://www.w3.org/2000/svg" xmlns:xlink="http://www.w3.org/1999/xlink" xmlns:sketch="http://www.bohemiancoding.com/sketch/ns">
    <!-- Generator: Sketch 3.4.4 (17249) - http://www.bohemiancoding.com/sketch -->
    <title>Artboard 1</title>
    <desc>Created with Sketch.</desc>
    <defs></defs>
    <g id="Page-1" stroke="none" stroke-width="1" fill="none" fill-rule="evenodd" sketch:type="MSPage">
        <g id="Artboard-1" sketch:type="MSArtboardGroup">
            <g id="Group" sketch:type="MSLayerGroup" transform="translate(0.000000, 4.000000)">
                <circle id="Plate" fill="#423F3C" sketch:type="MSShapeGroup" cx="50.8928571" cy="50.8928571" r="50.8928571"></circle>
                <path d="M101.785663,50.9694735 C87.5912069,39.6449963 66.8471979,40.5573805 53.7022892,53.7022892 C40.5545679,66.8500105 39.6455912,87.5923459 50.9694358,101.785658 C79.0160476,101.744354 101.744336,79.0160767 101.785658,50.969469 Z" id="Shadow" opacity="0.3" fill="#000000" sketch:type="MSShapeGroup"></path>
                <circle id="Coffee-Shadow" fill="#000000" sketch:type="MSShapeGroup" cx="50.8928571" cy="50.8928571" r="22.7678571"></circle>
                <path d="M69.8453122,68.9274156 C79.0019204,60.3094315 79.4385614,46.7478746 70.8205772,38.6368307 C62.202593,30.5257868 47.7934389,30.936743 38.6368307,39.5547272 C29.4802225,48.1727114 29.0435815,61.7342682 37.6615657,69.8453122 C46.2795498,77.9563561 60.688704,77.5453998 69.8453122,68.9274156 L69.8453122,68.9274156 Z" id="Coffee" fill="#32281E" sketch:type="MSShapeGroup"></path>
                <path d="M85.82645,41.5178571 L100.451462,41.5178571 C105.626352,41.5178571 109.821429,45.7140492 109.821429,50.8928571 C109.821429,56.0705267 105.630672,60.2678571 100.451462,60.2678571 L85.82645,60.2678571 C81.6969786,75.6940495 67.6214972,87.0535714 50.8928571,87.0535714 C30.9218461,87.0535714 14.7321429,70.8638682 14.7321429,50.8928571 C14.7321429,30.9218461 30.9218461,14.7321429 50.8928571,14.7321429 C67.6214972,14.7321429 81.6969786,26.0916648 85.82645,41.5178571 Z M50.8928571,73.6607143 C63.4671974,73.6607143 73.6607143,63.4671974 73.6607143,50.8928571 C73.6607143,38.3185169 63.4671974,28.125 50.8928571,28.125 C38.3185169,28.125 28.125,38.3185169 28.125,50.8928571 C28.125,63.4671974 38.3185169,73.6607143 50.8928571,73.6607143 Z" id="Cup" fill="#FFFFFF" sketch:type="MSShapeGroup"></path>
            </g>
        </g>
    </g>
</svg>